<mxfile host="app.diagrams.net" modified="2023-03-28T07:20:41.858Z" agent="Mozilla/5.0 (Windows NT 10.0; Win64; x64) AppleWebKit/537.36 (KHTML, like Gecko) Chrome/110.0.0.0 Safari/537.36" etag="pyemr6ctEX1wIUOJpsSO" version="21.1.1" type="github">
  <diagram name="T4Q9" id="Ti_DwZzjphlIsg43v8vo">
    <mxGraphModel dx="1434" dy="788" grid="1" gridSize="10" guides="1" tooltips="1" connect="1" arrows="1" fold="1" page="1" pageScale="1" pageWidth="827" pageHeight="1169" math="0" shadow="0">
      <root>
        <mxCell id="0" />
        <mxCell id="1" parent="0" />
        <mxCell id="aZMTKbim-Dah9bk_0VqY-7" style="edgeStyle=orthogonalEdgeStyle;rounded=0;orthogonalLoop=1;jettySize=auto;html=1;entryX=0;entryY=0.5;entryDx=0;entryDy=0;endArrow=none;endFill=0;" edge="1" parent="1" source="aZMTKbim-Dah9bk_0VqY-1" target="aZMTKbim-Dah9bk_0VqY-4">
          <mxGeometry relative="1" as="geometry" />
        </mxCell>
        <mxCell id="aZMTKbim-Dah9bk_0VqY-12" style="edgeStyle=none;shape=connector;rounded=0;orthogonalLoop=1;jettySize=auto;html=1;entryX=0;entryY=0.5;entryDx=0;entryDy=0;labelBackgroundColor=default;fontFamily=Helvetica;fontSize=11;fontColor=default;endArrow=none;endFill=0;strokeColor=#66B2FF;" edge="1" parent="1" source="aZMTKbim-Dah9bk_0VqY-1" target="aZMTKbim-Dah9bk_0VqY-5">
          <mxGeometry relative="1" as="geometry" />
        </mxCell>
        <mxCell id="aZMTKbim-Dah9bk_0VqY-1" value="C1" style="ellipse;whiteSpace=wrap;html=1;aspect=fixed;" vertex="1" parent="1">
          <mxGeometry x="210" y="160" width="80" height="80" as="geometry" />
        </mxCell>
        <mxCell id="aZMTKbim-Dah9bk_0VqY-8" style="shape=connector;rounded=0;orthogonalLoop=1;jettySize=auto;html=1;entryX=0;entryY=0.5;entryDx=0;entryDy=0;labelBackgroundColor=default;strokeColor=default;fontFamily=Helvetica;fontSize=11;fontColor=default;endArrow=none;endFill=0;" edge="1" parent="1" source="aZMTKbim-Dah9bk_0VqY-2" target="aZMTKbim-Dah9bk_0VqY-4">
          <mxGeometry relative="1" as="geometry" />
        </mxCell>
        <mxCell id="aZMTKbim-Dah9bk_0VqY-13" style="edgeStyle=none;shape=connector;rounded=0;orthogonalLoop=1;jettySize=auto;html=1;entryX=0;entryY=0.5;entryDx=0;entryDy=0;labelBackgroundColor=default;fontFamily=Helvetica;fontSize=11;fontColor=default;endArrow=none;endFill=0;strokeColor=#66B2FF;" edge="1" parent="1" source="aZMTKbim-Dah9bk_0VqY-2" target="aZMTKbim-Dah9bk_0VqY-5">
          <mxGeometry relative="1" as="geometry" />
        </mxCell>
        <mxCell id="aZMTKbim-Dah9bk_0VqY-2" value="C2" style="ellipse;whiteSpace=wrap;html=1;aspect=fixed;" vertex="1" parent="1">
          <mxGeometry x="210" y="370" width="80" height="80" as="geometry" />
        </mxCell>
        <mxCell id="aZMTKbim-Dah9bk_0VqY-9" style="edgeStyle=none;shape=connector;rounded=0;orthogonalLoop=1;jettySize=auto;html=1;entryX=0;entryY=0.5;entryDx=0;entryDy=0;labelBackgroundColor=default;strokeColor=default;fontFamily=Helvetica;fontSize=11;fontColor=default;endArrow=none;endFill=0;" edge="1" parent="1" source="aZMTKbim-Dah9bk_0VqY-3" target="aZMTKbim-Dah9bk_0VqY-4">
          <mxGeometry relative="1" as="geometry" />
        </mxCell>
        <mxCell id="aZMTKbim-Dah9bk_0VqY-14" style="edgeStyle=none;shape=connector;rounded=0;orthogonalLoop=1;jettySize=auto;html=1;entryX=0;entryY=0.5;entryDx=0;entryDy=0;labelBackgroundColor=default;fontFamily=Helvetica;fontSize=11;fontColor=default;endArrow=none;endFill=0;strokeColor=#66B2FF;" edge="1" parent="1" source="aZMTKbim-Dah9bk_0VqY-3" target="aZMTKbim-Dah9bk_0VqY-5">
          <mxGeometry relative="1" as="geometry" />
        </mxCell>
        <mxCell id="aZMTKbim-Dah9bk_0VqY-17" style="edgeStyle=none;shape=connector;rounded=0;orthogonalLoop=1;jettySize=auto;html=1;entryX=0;entryY=0.5;entryDx=0;entryDy=0;labelBackgroundColor=default;strokeColor=#FF3333;fontFamily=Helvetica;fontSize=11;fontColor=default;endArrow=none;endFill=0;" edge="1" parent="1" source="aZMTKbim-Dah9bk_0VqY-3" target="aZMTKbim-Dah9bk_0VqY-6">
          <mxGeometry relative="1" as="geometry" />
        </mxCell>
        <mxCell id="aZMTKbim-Dah9bk_0VqY-3" value="C3" style="ellipse;whiteSpace=wrap;html=1;aspect=fixed;" vertex="1" parent="1">
          <mxGeometry x="210" y="585" width="80" height="80" as="geometry" />
        </mxCell>
        <mxCell id="aZMTKbim-Dah9bk_0VqY-4" value="E1" style="ellipse;whiteSpace=wrap;html=1;aspect=fixed;" vertex="1" parent="1">
          <mxGeometry x="600" y="160" width="80" height="80" as="geometry" />
        </mxCell>
        <mxCell id="aZMTKbim-Dah9bk_0VqY-5" value="E2" style="ellipse;whiteSpace=wrap;html=1;aspect=fixed;" vertex="1" parent="1">
          <mxGeometry x="600" y="367.5" width="80" height="80" as="geometry" />
        </mxCell>
        <mxCell id="aZMTKbim-Dah9bk_0VqY-6" value="E3" style="ellipse;whiteSpace=wrap;html=1;aspect=fixed;" vertex="1" parent="1">
          <mxGeometry x="600" y="585" width="80" height="80" as="geometry" />
        </mxCell>
        <mxCell id="aZMTKbim-Dah9bk_0VqY-10" value="" style="curved=1;endArrow=none;html=1;rounded=0;labelBackgroundColor=default;strokeColor=default;fontFamily=Helvetica;fontSize=11;fontColor=default;shape=connector;endFill=0;" edge="1" parent="1">
          <mxGeometry width="50" height="50" relative="1" as="geometry">
            <mxPoint x="600" y="250" as="sourcePoint" />
            <mxPoint x="550" y="180" as="targetPoint" />
            <Array as="points">
              <mxPoint x="560" y="250" />
              <mxPoint x="520" y="240" />
            </Array>
          </mxGeometry>
        </mxCell>
        <mxCell id="aZMTKbim-Dah9bk_0VqY-11" value="&lt;font style=&quot;font-size: 25px;&quot;&gt;^&lt;/font&gt;" style="text;html=1;align=center;verticalAlign=middle;resizable=0;points=[];autosize=1;strokeColor=none;fillColor=none;fontSize=11;fontFamily=Helvetica;fontColor=default;" vertex="1" parent="1">
          <mxGeometry x="500" y="200" width="40" height="40" as="geometry" />
        </mxCell>
        <mxCell id="aZMTKbim-Dah9bk_0VqY-15" value="" style="curved=1;endArrow=none;html=1;rounded=0;labelBackgroundColor=default;fontFamily=Helvetica;fontSize=11;fontColor=default;shape=connector;endFill=0;strokeColor=#66B2FF;" edge="1" parent="1">
          <mxGeometry width="50" height="50" relative="1" as="geometry">
            <mxPoint x="590" y="440" as="sourcePoint" />
            <mxPoint x="570" y="350" as="targetPoint" />
            <Array as="points">
              <mxPoint x="550" y="430" />
              <mxPoint x="510" y="400" />
            </Array>
          </mxGeometry>
        </mxCell>
        <mxCell id="aZMTKbim-Dah9bk_0VqY-16" value="&lt;font style=&quot;font-size: 17px;&quot;&gt;V&lt;/font&gt;" style="text;html=1;align=center;verticalAlign=middle;resizable=0;points=[];autosize=1;fontSize=11;fontFamily=Helvetica;fontColor=#3399FF;" vertex="1" parent="1">
          <mxGeometry x="505" y="417.5" width="30" height="30" as="geometry" />
        </mxCell>
        <mxCell id="aZMTKbim-Dah9bk_0VqY-18" value="" style="curved=1;endArrow=none;html=1;rounded=0;labelBackgroundColor=default;strokeColor=#007FFF;fontFamily=Helvetica;fontSize=11;fontColor=default;shape=connector;endFill=0;" edge="1" parent="1">
          <mxGeometry width="50" height="50" relative="1" as="geometry">
            <mxPoint x="450" y="320" as="sourcePoint" />
            <mxPoint x="360" y="260" as="targetPoint" />
            <Array as="points">
              <mxPoint x="400" y="340" />
              <mxPoint x="400" y="250" />
            </Array>
          </mxGeometry>
        </mxCell>
        <mxCell id="aZMTKbim-Dah9bk_0VqY-19" value="" style="curved=1;endArrow=none;html=1;rounded=0;labelBackgroundColor=default;strokeColor=#007FFF;fontFamily=Helvetica;fontSize=11;fontColor=default;shape=connector;endFill=0;" edge="1" parent="1">
          <mxGeometry width="50" height="50" relative="1" as="geometry">
            <mxPoint x="480" y="410" as="sourcePoint" />
            <mxPoint x="350" y="410" as="targetPoint" />
            <Array as="points">
              <mxPoint x="430" y="440" />
              <mxPoint x="390" y="380" />
            </Array>
          </mxGeometry>
        </mxCell>
        <mxCell id="aZMTKbim-Dah9bk_0VqY-20" value="" style="curved=1;endArrow=none;html=1;rounded=0;labelBackgroundColor=default;strokeColor=#007FFF;fontFamily=Helvetica;fontSize=11;fontColor=default;shape=connector;endFill=0;" edge="1" parent="1">
          <mxGeometry width="50" height="50" relative="1" as="geometry">
            <mxPoint x="490" y="470" as="sourcePoint" />
            <mxPoint x="380" y="550" as="targetPoint" />
            <Array as="points">
              <mxPoint x="470" y="540" />
              <mxPoint x="400" y="480" />
            </Array>
          </mxGeometry>
        </mxCell>
        <mxCell id="aZMTKbim-Dah9bk_0VqY-21" value="" style="curved=1;endArrow=none;html=1;rounded=0;labelBackgroundColor=default;strokeColor=#FF3333;fontFamily=Helvetica;fontSize=11;fontColor=default;shape=connector;endFill=0;" edge="1" parent="1">
          <mxGeometry width="50" height="50" relative="1" as="geometry">
            <mxPoint x="510" y="620" as="sourcePoint" />
            <mxPoint x="360" y="620" as="targetPoint" />
            <Array as="points">
              <mxPoint x="450" y="670" />
              <mxPoint x="410" y="580" />
            </Array>
          </mxGeometry>
        </mxCell>
      </root>
    </mxGraphModel>
  </diagram>
</mxfile>
